<svg xmlns="http://www.w3.org/2000/svg" version="1.1" xmlns:xlink="http://www.w3.org/1999/xlink" xmlns:svgjs="http://svgjs.com/svgjs" width="1920" height="1080" preserveAspectRatio="none" viewBox="0 0 1920 1080"><g mask="url(&quot;#SvgjsMask1015&quot;)" fill="none"><rect width="1920" height="1080" x="0" y="0" fill="rgba(255, 255, 255, 1)"></rect><path d="M647.44 99.23a94.16 94.16 0 1 0 181.08-51.72z" fill="rgba(241, 171, 0, 1)"></path><path d="M1331.13 871.06 a14.97 14.97 0 1 0 29.94 0 a14.97 14.97 0 1 0 -29.94 0z" fill="rgba(6, 12, 75, 1)"></path><path d="M200.3 254.33L224.48 254.33L224.48 291.61L200.3 291.61z" fill="rgba(195, 27, 27, 1)"></path><path d="M846.38 504.1L927.87 504.1L927.87 511.62L846.38 511.62z" stroke="rgba(195, 27, 27, 1)"></path><path d="M1042.45 791.04L1048.56 791.04L1048.56 797.15L1042.45 797.15z" fill="rgba(6, 12, 75, 1)"></path><path d="M1342.31 794.51L1429.72 794.51L1429.72 884.54L1342.31 884.54z" fill="rgba(241, 171, 0, 1)"></path><path d="M717.16 358.3L819.56 358.3L819.56 460.7L717.16 460.7z" stroke="rgba(241, 171, 0, 1)"></path><path d="M1916.14 669.33L1929.75 669.33L1929.75 752.43L1916.14 752.43z" stroke="rgba(241, 171, 0, 1)"></path><path d="M1234.99 829.16L1262.45 829.16L1262.45 932.19L1234.99 932.19z" stroke="rgba(6, 12, 75, 1)"></path><path d="M1724.6 426.72L1822.23 426.72L1822.23 492.61L1724.6 492.61z" fill="rgba(6, 12, 75, 1)"></path><path d="M17.41 984.72L43.34 984.72L43.34 1010.65L17.41 1010.65z" fill="rgba(195, 27, 27, 1)"></path><path d="M1565.29 63.09L1637.79 63.09L1637.79 135.59L1565.29 135.59z" stroke="rgba(241, 171, 0, 1)"></path><path d="M1675.18 1051.4a20.26 20.26 0 1 0-36.67-17.24z" fill="rgba(195, 27, 27, 1)"></path><path d="M1696.11 345.8L1776.89 345.8L1776.89 363.31L1696.11 363.31z" fill="rgba(241, 171, 0, 1)"></path><path d="M1479.21 702.46L1566.14 702.46L1566.14 789.39L1479.21 789.39z" stroke="rgba(6, 12, 75, 1)"></path><path d="M432.57 748.42 a44.36 44.36 0 1 0 88.72 0 a44.36 44.36 0 1 0 -88.72 0z" fill="rgba(195, 27, 27, 1)"></path><path d="M1303.27 844.07a65.64 65.64 0 1 0 13.97-130.53z" fill="rgba(195, 27, 27, 1)"></path><path d="M454.51 783.43L522.45 783.43L522.45 851.37L454.51 851.37z" stroke="rgba(241, 171, 0, 1)"></path><path d="M472.52 1055.71L489.1 1055.71L489.1 1072.29L472.52 1072.29z" fill="rgba(241, 171, 0, 1)"></path><path d="M1646.19 253.91L1695.84 253.91L1695.84 303.56L1646.19 303.56z" stroke="rgba(6, 12, 75, 1)"></path><path d="M1368.64 379.77a98.11 98.11 0 1 0-163.1-109.1z" fill="rgba(195, 27, 27, 1)"></path><path d="M1642.51 26.13L1697.67 26.13L1697.67 81.29L1642.51 81.29z" fill="rgba(241, 171, 0, 1)"></path><path d="M1890.84 1029.07a25.15 25.15 0 1 0 31.24-39.42z" stroke="rgba(6, 12, 75, 1)"></path></g><defs><mask id="SvgjsMask1015"><rect width="1920" height="1080" fill="#ffffff"></rect></mask></defs></svg>