<svg xmlns="http://www.w3.org/2000/svg" version="1.1" xmlns:xlink="http://www.w3.org/1999/xlink" xmlns:svgjs="http://svgjs.com/svgjs" width="1920" height="1080" preserveAspectRatio="none" viewBox="0 0 1920 1080"><g mask="url(&quot;#SvgjsMask1018&quot;)" fill="none"><rect width="1920" height="1080" x="0" y="0" fill="rgba(255, 255, 255, 1)"></rect><path d="M1103.57 457.69a102.92 102.92 0 1 0 189.84-79.56z" fill="rgba(241, 171, 0, 1)"></path><path d="M263.53 861.01L334.61 861.01L334.61 863.66L263.53 863.66z" stroke="rgba(241, 171, 0, 1)"></path><path d="M656.7 710.55L711.76 710.55L711.76 765.61L656.7 765.61z" stroke="rgba(241, 171, 0, 1)"></path><path d="M1543.39 537.03L1589.85 537.03L1589.85 558.75L1543.39 558.75z" fill="rgba(195, 27, 27, 1)"></path><path d="M1859.9 171.46 a38.54 38.54 0 1 0 77.08 0 a38.54 38.54 0 1 0 -77.08 0z" stroke="rgba(241, 171, 0, 1)"></path><path d="M470.44 956.96L490.38 956.96L490.38 960.03L470.44 960.03z" stroke="rgba(241, 171, 0, 1)"></path><path d="M637.11 837.52 a100.2 100.2 0 1 0 200.4 0 a100.2 100.2 0 1 0 -200.4 0z" stroke="rgba(241, 171, 0, 1)"></path><path d="M1116.01 542.17 a61.12 61.12 0 1 0 122.24 0 a61.12 61.12 0 1 0 -122.24 0z" stroke="rgba(6, 12, 75, 1)"></path><path d="M2.09 17.37 a91.38 91.38 0 1 0 182.76 0 a91.38 91.38 0 1 0 -182.76 0z" fill="rgba(241, 171, 0, 1)"></path><path d="M728.47 88.5L802.48 88.5L802.48 145.83L728.47 145.83z" fill="rgba(195, 27, 27, 1)"></path><path d="M1309.62 725.22a21.92 21.92 0 1 0 33.78 27.94z" stroke="rgba(195, 27, 27, 1)"></path><path d="M115.28 651.51a15.89 15.89 0 1 0 31.68 2.4z" fill="rgba(195, 27, 27, 1)"></path><path d="M723.19 178.03a39.91 39.91 0 1 0-69.59-39.09z" fill="rgba(6, 12, 75, 1)"></path><path d="M461.16 969.21a38.76 38.76 0 1 0-61.79-46.81z" stroke="rgba(241, 171, 0, 1)"></path><path d="M932.14 737.62a35.52 35.52 0 1 0-61 36.42z" stroke="rgba(195, 27, 27, 1)"></path><path d="M1330.53 13.14L1392.51 13.14L1392.51 69.81L1330.53 69.81z" fill="rgba(195, 27, 27, 1)"></path><path d="M1015.79 310.18L1100.51 310.18L1100.51 394.9L1015.79 394.9z" fill="rgba(241, 171, 0, 1)"></path><path d="M1710.18 380.93a71.29 71.29 0 1 0 1.39 142.58z" fill="rgba(6, 12, 75, 1)"></path><path d="M421.36 351.35 a45.31 45.31 0 1 0 90.62 0 a45.31 45.31 0 1 0 -90.62 0z" stroke="rgba(6, 12, 75, 1)"></path><path d="M607.62 819.17a45.83 45.83 0 1 0-45.92 79.33z" stroke="rgba(6, 12, 75, 1)"></path><path d="M-13.22 933a49.13 49.13 0 1 0 54.41 81.82z" fill="rgba(241, 171, 0, 1)"></path><path d="M841.1 610.3a0.6 0.6 0 1 0 0.68-0.98z" stroke="rgba(241, 171, 0, 1)"></path><path d="M278.87 936.79a103.2 103.2 0 1 0 199.24 53.89z" stroke="rgba(195, 27, 27, 1)"></path></g><defs><mask id="SvgjsMask1018"><rect width="1920" height="1080" fill="#ffffff"></rect></mask></defs></svg>